<?xml version="1.0" encoding="UTF-8" standalone="no"?>
<!-- Created with Inkscape (http://www.inkscape.org/) -->

<svg
   xmlns:dc="http://purl.org/dc/elements/1.1/"
   xmlns:cc="http://creativecommons.org/ns#"
   xmlns:rdf="http://www.w3.org/1999/02/22-rdf-syntax-ns#"
   xmlns:svg="http://www.w3.org/2000/svg"
   xmlns="http://www.w3.org/2000/svg"
   xmlns:sodipodi="http://sodipodi.sourceforge.net/DTD/sodipodi-0.dtd"
   xmlns:inkscape="http://www.inkscape.org/namespaces/inkscape"
   version="1.1"
   id="svg2"
   width="303.51868"
   height="103.7381"
   viewBox="0 0 303.51868 103.7381"
   sodipodi:docname="silhueta.svg"
   inkscape:version="0.92.4 (unknown)">
  <metadata
     id="metadata8">
    <rdf:RDF>
      <cc:Work
         rdf:about="">
        <dc:format>image/svg+xml</dc:format>
        <dc:type
           rdf:resource="http://purl.org/dc/dcmitype/StillImage" />
        <dc:title></dc:title>
      </cc:Work>
    </rdf:RDF>
  </metadata>
  <defs
     id="defs6" />
  <sodipodi:namedview
     pagecolor="#ffffff"
     bordercolor="#666666"
     borderopacity="1"
     objecttolerance="10"
     gridtolerance="10"
     guidetolerance="10"
     inkscape:pageopacity="0"
     inkscape:pageshadow="2"
     inkscape:window-width="1366"
     inkscape:window-height="713"
     id="namedview4"
     showgrid="false"
     inkscape:zoom="1.2"
     inkscape:cx="334.99187"
     inkscape:cy="79.941646"
     inkscape:window-x="0"
     inkscape:window-y="27"
     inkscape:window-maximized="1"
     inkscape:current-layer="svg2" />
  <path
     style="fill:#000000;stroke-width:1.33333337"
     d="m 0.0969989,104.45021 c -0.970171,-2.52822 5.43606,-15.470437 14.7891151,-29.877767 8.254509,-12.71515 31.43974,-37.2284 45.08464,-47.66704 5.23661,-4.006115 13.63054,-9.203859 18.65318,-11.550543 24.902316,-11.6349026 50.768396,-3.030619 77.281456,25.707483 l 11.23178,12.17437 41.1238,-1.64769 c 22.61809,-0.90624 41.61425,-1.95082 42.2137,-2.3213 1.01743,-0.6288 0.34658,-13.75763 -1.05834,-20.711882 -0.34364,-1.701001 -0.99763,-7.352388 -1.45331,-12.558639 -0.77852,-8.8946316 -0.63889,-9.5987276 2.31351,-11.6666656 4.53009,-3.173005 25.43816,-3.084698 31.88046,0.134649 7.27094,3.633428 8.75319,8.1607406 6.89027,21.0453186 -0.85547,5.916719 -1.5554,13.332839 -1.5554,16.480259 v 5.72259 l 7,-0.93412 c 3.85,-0.51376 7.3,-1.02007 7.66667,-1.12512 0.36666,-0.10505 0.96666,0.409 1.33333,1.14233 0.36704,0.7341 -3.0786,2.18727 -7.66667,3.23337 -7.72962,1.76238 -8.33333,2.1644 -8.33333,5.54937 0,2.00714 -0.92535,8.35213 -2.05632,14.09997 -1.13099,5.74785 -2.39484,13.15063 -2.80857,16.45063 -2.03491,16.230697 -4.95179,2.90779 -4.2328,-19.33334 l 0.43102,-13.33333 -8,0.42271 c -12.57636,0.66451 -12.76333,0.78892 -12.02365,8.00007 0.35227,3.43414 1.22993,11.93565 1.95037,18.89224 2.39264,23.103187 -1.99988,16.42171 -5.24729,-7.98169 -2.41748,-18.1666 -1.79656,-17.52796 -16.33689,-16.80315 -6.78839,0.33839 -17.74254,0.96147 -24.34254,1.38463 -6.6,0.42315 -18.82164,1.03707 -27.1592,1.36425 -8.33754,0.32719 -15.36964,0.80534 -15.62686,1.06256 -0.86387,0.86387 14.1487,22.32505 15.61686,22.32505 0.798,0 3.33754,-1.59269 5.64339,-3.53931 6.12203,-5.16823 19.47643,-11.12959 24.85915,-11.09702 8.43597,0.051 16.00314,4.8048 29.0218,18.23176 6.81232,7.02598 12.10084,13.05971 11.75225,13.40829 -1.23997,1.239967 -9.56036,-4.9762 -17.44072,-13.02998 -15.31461,-15.65163 -21.25771,-15.86524 -37.29643,-1.34049 -9.31232,8.43327 -12.01286,9.7931 -17.43026,8.77679 -5.11924,-0.96038 -8.54718,-4.64658 -15.67532,-16.85638 -2.78778,-4.77517 -6.41567,-10.37142 -8.06199,-12.4361 l -2.99331,-3.75396 -25.27134,2.97347 c -19.20882,2.26015 -29.10971,2.78535 -41.271346,2.1893 -20.87688,-1.0232 -24,-1.91255 -24,-6.83431 v -3.78276 l 31.333326,-0.22985 c 26.60855,-0.19519 49.63916,-2.02444 51.85503,-4.11867 0.73485,-0.69452 -8.17627,-11.38312 -14.88732,-17.85687 -6.89104,-6.647369 -19.50092,-13.079109 -27.83589,-14.197856 -8.29002,-1.112712 -23.598076,2.422062 -34.055916,7.86383 -12.02525,6.257366 -28.55248,19.838966 -40.024972,32.891356 -10.987591,12.5007 -27.493618,35.09871 -28.8975231,39.56291 -0.488479,1.553287 -2.060316,3.884957 -3.492972,5.181487 -2.276856,2.06053 -2.703517,2.10016 -3.388628,0.31479 z M 276.96581,47.995603 c 3.31845,-0.63018 3.51206,-1.14925 4.32534,-11.5961 1.55322,-19.951494 1.17688,-26.010261 -1.71164,-27.5561446 -4.3886,-2.348706 -19.39106,-1.715566 -22.58373,0.953088 -2.72245,2.2756216 -2.75473,2.7785426 -1.30483,20.3333336 0.83319,10.087993 2.1418,18.450543 2.97712,19.024993 1.38118,0.94984 10.10095,0.39744 18.29774,-1.15917 z"
     id="path12"
     inkscape:connector-curvature="0" />
</svg>
